<svg xmlns="http://www.w3.org/2000/svg" width="22.754" height="26" viewBox="0 0 22.754 26">
  <g id="Group_3690" data-name="Group 3690" transform="translate(-14.949 -13.72)">
    <g id="Group_3865" data-name="Group 3865" transform="translate(14.949 13.72)">
      <path id="Path_4250" data-name="Path 4250" d="M5211.245,2014.164h-12.138a.494.494,0,0,0-.088-.044,2.388,2.388,0,0,1-1.941-2.468q0-7.235,0-14.471a2.889,2.889,0,0,1,.081-.7,2.407,2.407,0,0,1,2.459-1.8h.714c0-.312-.005-.581,0-.851a2.373,2.373,0,0,1,2.054-2.368c.389-.059.788-.043,1.224-.064,0-.322-.018-.642,0-.96a2.363,2.363,0,0,1,2.418-2.272q2.449,0,4.9,0a4.428,4.428,0,0,1,3.188,1.282q2.24,2.194,4.434,4.435a4.278,4.278,0,0,1,1.257,3.019c.024,2.8.016,5.6.005,8.4a2.355,2.355,0,0,1-2.116,2.306c-.367.035-.739.005-1.137.005,0,.3,0,.542,0,.785a2.421,2.421,0,0,1-2.517,2.506h-.753c0,.274,0,.518,0,.762a2.271,2.271,0,0,1-.919,1.966A6.345,6.345,0,0,1,5211.245,2014.164Zm.466-8.061h5.585a.884.884,0,0,0,1-.994q0-3.947,0-7.895a.878.878,0,0,0-.983-.987c-1.008,0-2.015,0-3.022,0a2.422,2.422,0,0,1-2.533-2.54c0-.982,0-1.963,0-2.945,0-.736-.314-1.054-1.044-1.054h-4.544c-.7,0-1.029.321-1.029,1.018V2005.1c0,.692.313,1,1.007,1Zm.042,4.806h-.339q-4.252,0-8.5,0a3.13,3.13,0,0,1-.728-.074,2.4,2.4,0,0,1-1.848-2.444q0-5.913,0-11.826v-.329c-.351,0-.663-.013-.974.006a.826.826,0,0,0-.372.139.923.923,0,0,0-.386.859q0,7.169,0,14.338c0,.742.325,1.067,1.067,1.067h11.041c.077,0,.153,0,.228,0a.854.854,0,0,0,.806-.719C5211.775,2011.594,5211.752,2011.265,5211.752,2010.908Zm-8.147-17.955h-.645c-.78,0-1.082.3-1.082,1.067v14.293c0,.754.308,1.062,1.063,1.062q5.51,0,11.02,0a2.058,2.058,0,0,0,.378-.028.741.741,0,0,0,.645-.6,7.039,7.039,0,0,0,.013-1.1h-.338q-4.239,0-8.479,0a2.56,2.56,0,0,1-1.576-.464,2.448,2.448,0,0,1-1-2.11q.009-5.878,0-11.755Zm13.452,1.718c-1.247-1.246-2.511-2.51-3.76-3.759,0,.821,0,1.69,0,2.558a3.561,3.561,0,0,0,.025.531.786.786,0,0,0,.7.664C5215.055,1994.681,5216.084,1994.671,5217.057,1994.671Z" transform="translate(-5197.077 -1988.164)"/>
      <path id="Path_4251" data-name="Path 4251" d="M5367.923,2136.737c.729-1.093,1.433-2.147,2.134-3.2.161-.239.315-.481.48-.715a.764.764,0,1,1,1.277.837q-1.615,2.44-3.248,4.87a.756.756,0,0,1-1.3-.007q-.8-1.184-1.59-2.381a.767.767,0,1,1,1.275-.847C5367.274,2135.761,5367.585,2136.232,5367.923,2136.737Z" transform="translate(-5354.101 -2122.672)"/>
    </g>
  </g>
</svg>
