<svg xmlns="http://www.w3.org/2000/svg" width="24.689" height="28.648" viewBox="0 0 24.689 28.648">
  <path id="Path_4260" data-name="Path 4260" d="M7316.228,2824.044c-1.109,0-2.179.006-3.246,0a2.111,2.111,0,0,1-2.1-2.115q0-10.248,0-20.5a2.054,2.054,0,0,1,1.727-2.07,2.247,2.247,0,0,1,.45-.033q8.19,0,16.377,0a2.1,2.1,0,0,1,2.192,2.167c.011.931,0,1.862,0,2.793v.409c.584,0,1.129.024,1.671,0a2.182,2.182,0,0,1,2.262,2.246c-.025,6.262-.011,12.524-.013,18.786a2.09,2.09,0,0,1-2.209,2.246q-7.437.01-14.876,0a2.119,2.119,0,0,1-2.239-2.265C7316.225,2825.17,7316.228,2824.635,7316.228,2824.044Zm13.955-8.993v-.436q0-6.458,0-12.917c0-.734-.188-.921-.931-.921h-15.989c-.759,0-.955.193-.955.941v19.9c0,.74.219.958.958.959h9.408v-.461c0-1.606-.008-3.212,0-4.818a2.145,2.145,0,0,1,2.27-2.246q2.408,0,4.817,0Zm-12.509,8.965v1.525c0,.8.188,1,.98,1h14.484c.786,0,.969-.182.969-.96v-18.5a3.186,3.186,0,0,0-.009-.348.57.57,0,0,0-.552-.572c-.624-.027-1.25-.008-1.914-.008v.435c0,2.874-.007,5.748,0,8.622a2.548,2.548,0,0,1-.792,1.933q-3.042,3-6.052,6.042a2.687,2.687,0,0,1-2.027.841c-1.547-.019-3.095-.006-4.642-.006Zm6.434-2.253,5.165-5.264c-1.41,0-2.875,0-4.339,0-.585,0-.823.237-.825.828,0,.989,0,1.979,0,2.967Z" transform="translate(-7310.876 -2799.326)"/>
</svg>
