<svg xmlns="http://www.w3.org/2000/svg" width="16" height="16" viewBox="0 0 16 16">
  <path id="Path_4121" data-name="Path 4121" d="M120.567,149.333h1c.039.01.078.023.118.03.3.049.6.077.89.146a6.5,6.5,0,0,1,4.935,5.478,6.327,6.327,0,0,1-.493,3.443c-.192.429-.444.831-.679,1.267a1,1,0,0,1,.084.071q1.821,1.823,3.644,3.645a1.694,1.694,0,0,1,.5.735v.375c-.009.013-.022.024-.025.038a1.009,1.009,0,0,1-1.734.439c-.861-.884-1.741-1.749-2.613-2.623l-1.286-1.29a.329.329,0,0,0-.038.016l-.052.035a6.387,6.387,0,0,1-5.524.949,6.505,6.505,0,0,1-4.72-5.9,6.509,6.509,0,0,1,5.245-6.731C120.066,149.406,120.317,149.374,120.567,149.333Zm.487,11a4.5,4.5,0,1,0-4.487-4.513A4.511,4.511,0,0,0,121.054,160.335Z" transform="translate(-114.565 -149.333)"/>
</svg>
